<?xml version="1.0" standalone="no"?>
<!DOCTYPE svg PUBLIC "-//W3C//DTD SVG 20010904//EN"
 "http://www.w3.org/TR/2001/REC-SVG-20010904/DTD/svg10.dtd">
<svg version="1.0" xmlns="http://www.w3.org/2000/svg"
 width="300.000000pt" height="300.000000pt" viewBox="0 0 300.000000 300.000000"
 preserveAspectRatio="xMidYMid meet">
<metadata>
Created by potrace 1.11, written by Peter Selinger 2001-2013
</metadata>
<g transform="translate(0.000000,300.000000) scale(0.100000,-0.100000)"
fill="#000000" stroke="none">
<path d="M747 2702 c-35 -21 -43 -55 -41 -162 4 -156 16 -564 19 -630 1 -36 5
-144 9 -240 4 -96 9 -218 11 -270 19 -453 23 -811 10 -907 -10 -76 2 -109 50
-142 43 -29 101 -31 147 -5 28 16 46 18 128 13 104 -6 133 0 161 34 40 49 33
117 -19 166 -25 24 -36 26 -136 31 l-110 5 -2 285 c-2 349 -18 1006 -29 1230
-2 41 -6 176 -10 300 -6 195 -9 229 -26 256 -33 54 -107 70 -162 36z"/>
<path d="M1751 2674 c-37 -19 -49 -50 -45 -119 5 -122 41 -277 111 -485 80
-237 110 -377 118 -536 4 -90 11 -167 21 -219 30 -160 36 -261 29 -535 -9
-333 -8 -366 6 -401 29 -73 174 -67 208 7 11 25 13 113 6 279 -4 113 -17 673
-17 765 -1 103 8 244 22 353 12 98 13 103 50 287 47 237 69 370 75 467 6 84 5
93 -14 112 -20 20 -36 24 -95 23 -69 -2 -123 -108 -151 -297 -4 -22 -8 -49
-10 -61 -4 -25 -16 -138 -25 -229 -1 -11 -10 21 -21 70 -10 50 -20 99 -23 110
-21 104 -72 278 -95 330 -41 89 -84 112 -150 79z"/>
</g>
</svg>
